<svg width="46" height="45" viewBox="0 0 46 45" fill="none" xmlns="http://www.w3.org/2000/svg">
<path d="M15.2839 3.75H31.0339C37.0339 3.75 41.9089 8.625 41.9089 14.625V30.375C41.9089 33.2592 40.7632 36.0253 38.7237 38.0648C36.6843 40.1042 33.9182 41.25 31.0339 41.25H15.2839C9.28394 41.25 4.40894 36.375 4.40894 30.375V14.625C4.40894 11.7408 5.55469 8.97467 7.59415 6.93521C9.63361 4.89576 12.3997 3.75 15.2839 3.75ZM14.9089 7.5C13.1187 7.5 11.4018 8.21116 10.136 9.47703C8.8701 10.7429 8.15894 12.4598 8.15894 14.25V30.75C8.15894 34.4812 11.1777 37.5 14.9089 37.5H31.4089C33.1991 37.5 34.916 36.7888 36.1819 35.523C37.4478 34.2571 38.1589 32.5402 38.1589 30.75V14.25C38.1589 10.5187 35.1402 7.5 31.4089 7.5H14.9089ZM33.0027 10.3125C33.6243 10.3125 34.2204 10.5594 34.66 10.999C35.0995 11.4385 35.3464 12.0346 35.3464 12.6562C35.3464 13.2779 35.0995 13.874 34.66 14.3135C34.2204 14.7531 33.6243 15 33.0027 15C32.3811 15 31.7849 14.7531 31.3454 14.3135C30.9059 13.874 30.6589 13.2779 30.6589 12.6562C30.6589 12.0346 30.9059 11.4385 31.3454 10.999C31.7849 10.5594 32.3811 10.3125 33.0027 10.3125ZM23.1589 13.125C25.6453 13.125 28.0299 14.1127 29.7881 15.8709C31.5462 17.629 32.5339 20.0136 32.5339 22.5C32.5339 24.9864 31.5462 27.371 29.7881 29.1291C28.0299 30.8873 25.6453 31.875 23.1589 31.875C20.6725 31.875 18.288 30.8873 16.5298 29.1291C14.7717 27.371 13.7839 24.9864 13.7839 22.5C13.7839 20.0136 14.7717 17.629 16.5298 15.8709C18.288 14.1127 20.6725 13.125 23.1589 13.125ZM23.1589 16.875C21.6671 16.875 20.2364 17.4676 19.1815 18.5225C18.1266 19.5774 17.5339 21.0082 17.5339 22.5C17.5339 23.9918 18.1266 25.4226 19.1815 26.4775C20.2364 27.5324 21.6671 28.125 23.1589 28.125C24.6508 28.125 26.0815 27.5324 27.1364 26.4775C28.1913 25.4226 28.7839 23.9918 28.7839 22.5C28.7839 21.0082 28.1913 19.5774 27.1364 18.5225C26.0815 17.4676 24.6508 16.875 23.1589 16.875Z" fill="#4B4F59" fill-opacity="0.4"/>
</svg>
