<svg width="45" height="44" viewBox="0 0 45 44" fill="none" xmlns="http://www.w3.org/2000/svg">
<path d="M15.5813 18.6455C14.6534 18.6455 13.7463 18.9119 12.9751 19.411C12.2038 19.91 11.603 20.6193 11.2488 21.4489C10.8946 22.2785 10.8029 23.1911 10.9853 24.0712C11.1676 24.9513 11.616 25.7592 12.2734 26.3926C12.9308 27.0261 13.7678 27.4565 14.6783 27.6294C15.5888 27.8023 16.5319 27.7099 17.3881 27.3639C18.2443 27.0179 18.9751 26.4339 19.4879 25.6859C20.0007 24.9378 20.2725 24.0594 20.2688 23.1618C20.2638 21.9623 19.7678 20.8136 18.8892 19.9672C18.0107 19.1207 16.8212 18.6455 15.5813 18.6455ZM15.5813 25.5378C15.2419 25.5666 14.9001 25.5267 14.5776 25.4208C14.255 25.315 13.9587 25.1453 13.7076 24.9227C13.4564 24.7001 13.2559 24.4294 13.1187 24.1278C12.9815 23.8263 12.9106 23.5003 12.9106 23.1708C12.9106 22.8413 12.9815 22.5154 13.1187 22.2138C13.2559 21.9122 13.4564 21.6415 13.7076 21.4189C13.9587 21.1963 14.255 21.0267 14.5776 20.9208C14.9001 20.8149 15.2419 20.7751 15.5813 20.8039C15.9206 20.7751 16.2624 20.8149 16.585 20.9208C16.9075 21.0267 17.2038 21.1963 17.455 21.4189C17.7061 21.6415 17.9067 21.9122 18.0439 22.2138C18.1811 22.5154 18.2519 22.8413 18.2519 23.1708C18.2519 23.5003 18.1811 23.8263 18.0439 24.1278C17.9067 24.4294 17.7061 24.7001 17.455 24.9227C17.2038 25.1453 16.9075 25.315 16.585 25.4208C16.2624 25.5267 15.9206 25.5666 15.5813 25.5378ZM29.4188 18.6455C28.4909 18.6455 27.5838 18.9119 26.8126 19.411C26.0413 19.91 25.4405 20.6193 25.0863 21.4489C24.7321 22.2785 24.6404 23.1911 24.8227 24.0712C25.0051 24.9513 25.4534 25.7592 26.1109 26.3926C26.7683 27.0261 27.6053 27.4565 28.5158 27.6294C29.4263 27.8023 30.3694 27.7099 31.2256 27.3639C32.0818 27.0179 32.8126 26.4339 33.3254 25.6859C33.8382 24.9378 34.11 24.0594 34.1063 23.1618C34.1013 21.9623 33.6053 20.8136 32.7267 19.9672C31.8482 19.1207 30.6587 18.6455 29.4188 18.6455ZM31.875 23.1618C31.8787 23.6325 31.7378 24.0936 31.4702 24.4867C31.2026 24.8798 30.8203 25.1872 30.3718 25.3698C29.9233 25.5524 29.4289 25.6021 28.9512 25.5125C28.4735 25.4228 28.0341 25.198 27.6887 24.8664C27.3433 24.5349 27.1075 24.1116 27.0112 23.6502C26.9149 23.1888 26.9624 22.7101 27.1477 22.2749C27.3331 21.8397 27.6479 21.4675 28.0522 21.2056C28.4565 20.9437 28.9322 20.8039 29.4188 20.8039C30.067 20.8039 30.6889 21.0517 31.149 21.4934C31.6091 21.9351 31.8701 22.5348 31.875 23.1618Z" fill="#4B4F59" fill-opacity="0.4"/>
<path d="M22.5 3.62744C18.7916 3.62744 15.1665 4.69119 12.0831 6.68418C8.99965 8.67716 6.59641 11.5099 5.17727 14.8241C3.75812 18.1383 3.38681 21.7852 4.11028 25.3035C4.83376 28.8219 6.61952 32.0537 9.24176 34.5903C11.864 37.1269 15.2049 38.8543 18.8421 39.5541C22.4792 40.254 26.2492 39.8948 29.6753 38.522C33.1014 37.1492 36.0298 34.8245 38.0901 31.8418C40.1503 28.859 41.25 25.3523 41.25 21.765C41.25 19.3832 40.765 17.0246 39.8228 14.8241C38.8805 12.6235 37.4994 10.6241 35.7583 8.93982C34.0172 7.25559 31.9502 5.91958 29.6753 5.00808C27.4005 4.09658 24.9623 3.62744 22.5 3.62744ZM36.3375 23.1616C36.3394 24.4649 35.9479 25.7403 35.2111 26.8313C34.4743 27.9224 33.4243 28.7816 32.1898 29.3036C30.9553 29.8256 29.5902 29.9875 28.2619 29.7696C26.9337 29.5517 25.7 28.9634 24.7125 28.0769L22.5 30.4167L20.2875 28.0769C19.6178 28.6724 18.8333 29.1344 17.979 29.4366C17.1247 29.7388 16.2172 29.8753 15.3083 29.8383C14.3995 29.8012 13.5071 29.5914 12.6821 29.2207C11.857 28.85 11.1156 28.3258 10.5 27.6779C9.88444 27.03 9.40681 26.2712 9.09439 25.4448C8.78198 24.6184 8.6409 23.7405 8.6792 22.8613C8.71751 21.9822 8.93445 21.1189 9.31764 20.3208C9.70083 19.5228 10.2428 18.8055 10.9125 18.2101L8.66251 15.8522H13.6875C16.2857 14.1319 19.3608 13.2114 22.5094 13.2114C25.658 13.2114 28.733 14.1319 31.3313 15.8522H36.3375L34.0875 18.2282C34.7939 18.856 35.3585 19.6184 35.7457 20.4674C36.1329 21.3164 36.3344 22.2337 36.3375 23.1616Z" fill="#4B4F59" fill-opacity="0.4"/>
<path d="M27.6937 16.4146C26.0483 15.7501 24.283 15.408 22.5 15.408C20.717 15.408 18.9516 15.7501 17.3062 16.4146C18.7604 16.8839 20.0341 17.767 20.9608 18.9482C21.8875 20.1294 22.424 21.5538 22.5 23.0348C22.5811 21.5552 23.1194 20.1331 24.0454 18.9528C24.9714 17.7725 26.2424 16.8883 27.6937 16.4146Z" fill="#4B4F59" fill-opacity="0.4"/>
</svg>
